<svg width="321" height="468" viewBox="0 0 321 468" fill="none" xmlns="http://www.w3.org/2000/svg">
<path d="M8 8C25.9366 52.8348 43.6755 99.1795 61.0799 147.013C78.8716 195.909 95.396 243.853 110.758 290.735C114.555 302.32 114.829 314.765 111.53 326.503C107.958 339.212 104.736 355.047 103.682 373.348C102.475 394.324 101.893 407.236 107.874 420.151C121.429 449.428 164.065 460.677 193.778 459.969C258.329 458.432 317.74 398.076 312.511 355.184C309.067 326.935 278.869 316.8 277.589 280.437C277.386 274.679 277.942 269.206 279.001 264.075C282.85 245.442 274.308 226.485 257.755 217.109C257.615 217.03 257.476 216.951 257.333 216.869C215.498 193.11 178.468 172.082 162.35 133.041C159.033 125.012 155.181 112.78 154.47 96.2967C153.993 85.2948 149.369 74.8806 141.531 67.1464C118.114 44.036 90.543 15.5181 84.1276 11.4916" stroke="#FF1D25" stroke-width="15" stroke-linecap="round" stroke-linejoin="round"/>
</svg>
